# This file uses centimeters as units for non-parametric coordinates.

mtllib platform.mtl
g default
v -1.000000 -1.000000 2.000000
v 1.000000 -1.000000 2.000000
v -1.000000 1.000000 2.000000
v 1.000000 1.000000 2.000000
v -1.000000 1.000000 -2.000000
v 1.000000 1.000000 -2.000000
v -1.000000 -1.000000 -2.000000
v 1.000000 -1.000000 -2.000000
vt 1.000000 1.000000
vt 0.503873 1.000000
vt 0.503873 0.751937
vt 1.000000 0.751936
vt 0.496127 1.000000
vt -0.000000 1.000000
vt -0.000000 0.751936
vt 0.496127 0.751936
vt 0.496127 0.500445
vt 0.496128 0.748509
vt 0.000000 0.748509
vt 0.000001 0.500445
vt 0.496127 -0.000000
vt 0.496127 0.248064
vt 0.000000 0.248064
vt 0.000000 0.000000
vt 0.249950 0.248217
vt 0.498014 0.248217
vt 0.498014 0.496280
vt 0.249950 0.496280
vt 0.248958 0.496974
vt 0.000895 0.496974
vt 0.000895 0.248911
vt 0.248958 0.248911
vn 0.000000 0.000000 1.000000
vn 0.000000 0.000000 1.000000
vn 0.000000 0.000000 1.000000
vn 0.000000 0.000000 1.000000
vn 0.000000 1.000000 0.000000
vn 0.000000 1.000000 0.000000
vn 0.000000 1.000000 0.000000
vn 0.000000 1.000000 0.000000
vn 0.000000 0.000000 -1.000000
vn 0.000000 0.000000 -1.000000
vn 0.000000 0.000000 -1.000000
vn 0.000000 0.000000 -1.000000
vn 0.000000 -1.000000 0.000000
vn 0.000000 -1.000000 0.000000
vn 0.000000 -1.000000 0.000000
vn 0.000000 -1.000000 0.000000
vn 1.000000 0.000000 0.000000
vn 1.000000 0.000000 0.000000
vn 1.000000 0.000000 0.000000
vn 1.000000 0.000000 0.000000
vn -1.000000 0.000000 0.000000
vn -1.000000 0.000000 0.000000
vn -1.000000 0.000000 0.000000
vn -1.000000 0.000000 0.000000
s off
g pCube1
usemtl aiStandardSurface1SG
f 1/17/1 2/18/2 4/19/3 3/20/4
f 3/9/5 4/10/6 6/11/7 5/12/8
f 5/21/9 6/22/10 8/23/11 7/24/12
f 7/13/13 8/14/14 2/15/15 1/16/16
f 2/1/17 8/2/18 6/3/19 4/4/20
f 7/5/21 1/6/22 3/7/23 5/8/24
